<svg width="327" height="180" viewBox="0 0 327 180" fill="none" xmlns="http://www.w3.org/2000/svg">
<path d="M199.259 172.937L258.404 178.714L286.119 172.937V80.0918L232.027 76.2408L199.259 82.0172V172.937Z" fill="#103D66" stroke="#263238" stroke-linecap="round" stroke-linejoin="round"/>
<path d="M245.441 132.561C245.504 135.397 245.096 138.218 244.243 140.837C243.39 143.456 242.112 145.813 240.494 147.752C238.876 149.691 236.954 151.168 234.857 152.084C232.759 153 230.534 153.335 228.327 153.066C223.65 152.407 219.324 149.572 216.17 145.101C213.015 140.629 211.252 134.831 211.214 128.806C211.146 125.967 211.551 123.142 212.402 120.519C213.253 117.897 214.531 115.536 216.15 113.594C217.769 111.652 219.692 110.174 221.792 109.258C223.891 108.342 226.119 108.009 228.327 108.281C233.006 108.945 237.333 111.784 240.487 116.258C243.64 120.733 245.403 126.533 245.441 132.561Z" fill="white"/>
<path d="M233.08 123.569V124.513C233.08 127.208 232.448 128.826 231.049 129.519C231.849 130.068 232.5 130.913 232.919 131.943C233.337 132.974 233.503 134.142 233.395 135.295V137.413C233.395 141.475 231.756 143.459 228.613 143.189L223.651 142.65V116.503L228.403 117.023C231.666 117.389 233.08 119.526 233.08 123.569ZM226.809 120.604V127.516L228.042 127.67C229.215 127.786 229.922 127.189 229.922 125.09V123.627C229.922 121.702 229.44 120.893 228.328 120.758L226.809 120.604ZM226.809 131.271V139.319L228.613 139.531C229.666 139.646 230.237 139.069 230.237 137.124V134.929C230.237 132.503 229.636 131.675 228.207 131.521L226.809 131.271Z" fill="black"/>
<path d="M258.404 178.714V87.6593L209.71 83.8662" stroke="#263238" stroke-linecap="round" stroke-linejoin="round"/>
<path d="M258.404 87.6589L286.119 80.0905" stroke="#263238" stroke-linecap="round" stroke-linejoin="round"/>
<path d="M294.48 107.359L326 106.836" stroke="#263238" stroke-linecap="round" stroke-linejoin="round"/>
<path d="M290.901 71.9482L312.315 53.464" stroke="#263238" stroke-linecap="round" stroke-linejoin="round"/>
<path d="M251.05 56.8904V18.2854" stroke="#263238" stroke-linecap="round" stroke-linejoin="round"/>
<path d="M212.973 56.8904L203.454 34.4968" stroke="#263238" stroke-linecap="round" stroke-linejoin="round"/>
<path d="M187.394 93.3282L168.401 88.5636" stroke="#263238" stroke-linecap="round" stroke-linejoin="round"/>
<path d="M187.394 130.674L168.401 138.624" stroke="#263238" stroke-linecap="round" stroke-linejoin="round"/>
<path d="M297.443 138.625L312.315 146.251" stroke="#263238" stroke-linecap="round" stroke-linejoin="round"/>
<path d="M127.741 155.653L68.5962 161.429L40.881 155.653V62.8071L94.973 58.9562L127.741 64.7325V155.653Z" fill="#103D66" stroke="#263238" stroke-linecap="round" stroke-linejoin="round"/>
<path d="M111.936 126.301C117.889 116.173 116.716 102.183 109.316 95.0535C101.916 87.9244 91.0925 90.356 85.1401 100.485C79.1877 110.613 80.3609 124.604 87.7604 131.733C95.16 138.862 105.984 136.43 111.936 126.301Z" fill="white"/>
<path d="M104.086 125.481L100.883 125.75L100.342 121.052L96.4469 121.38L95.9055 126.174L93.0032 126.424L96.2213 99.9306L100.853 99.5455L104.086 125.481ZM96.8529 117.779L99.8606 117.529L98.3567 104.378L96.8529 117.779Z" fill="black"/>
<path d="M68.5962 161.429V70.3747L117.38 66.5815" stroke="#263238" stroke-linecap="round" stroke-linejoin="round"/>
<path d="M68.5962 70.3743L40.881 62.8069" stroke="#263238" stroke-linecap="round" stroke-linejoin="round"/>
<path d="M32.5199 90.074L1 89.5515" stroke="#263238" stroke-linecap="round" stroke-linejoin="round"/>
<path d="M36.0989 54.662L14.6847 36.1793" stroke="#263238" stroke-linecap="round" stroke-linejoin="round"/>
<path d="M75.9498 39.6051V1" stroke="#263238" stroke-linecap="round" stroke-linejoin="round"/>
<path d="M114.026 39.6051L123.546 17.2122" stroke="#263238" stroke-linecap="round" stroke-linejoin="round"/>
<path d="M139.606 76.0436L158.599 71.2789" stroke="#263238" stroke-linecap="round" stroke-linejoin="round"/>
<path d="M139.606 113.39L158.599 121.34" stroke="#263238" stroke-linecap="round" stroke-linejoin="round"/>
<path d="M29.5574 121.34L14.6847 128.966" stroke="#263238" stroke-linecap="round" stroke-linejoin="round"/>
</svg>
