<svg width="79" height="75" viewBox="0 0 79 75" fill="none" xmlns="http://www.w3.org/2000/svg">
<path d="M77.9913 37.4683C78.0992 42.2343 77.1998 46.9725 75.3462 51.404C73.4926 55.8355 70.7223 59.8705 67.1983 63.2715C63.6744 66.6725 59.4681 69.3706 54.8273 71.207C50.1865 73.0433 45.2049 73.9808 40.176 73.9641C29.915 73.9272 20.0756 70.09 12.7579 63.2714C5.44011 56.4528 1.22361 47.193 1.00829 37.4683C0.902842 32.7036 1.80396 27.9671 3.65863 23.5376C5.51329 19.1081 8.28402 15.075 11.8077 11.6758C15.3314 8.27662 19.5368 5.57998 24.1765 3.74464C28.8161 1.90931 33.7962 0.972393 38.8236 0.988986C49.083 1.02161 58.9224 4.85517 66.2406 11.6711C73.5589 18.487 77.7759 27.7451 77.9913 37.4683Z" fill="white" stroke="#263238" stroke-linecap="round" stroke-linejoin="round"/>
<path d="M26.1883 65.0347C22.6395 63.7674 19.3861 61.8336 16.6162 59.345C13.8239 56.7548 11.6622 53.5984 10.2871 50.1035C8.72017 46.1857 7.94486 42.0145 8.00305 37.8152C7.98115 34.2349 8.63704 30.6808 9.93839 27.328C11.1212 24.2312 12.8955 21.3763 15.1691 18.9114C19.651 14.178 25.4399 10.779 31.8548 9.11438C35.0042 8.2947 38.2522 7.88153 41.5141 7.88558C44.2226 7.87376 46.9223 8.1847 49.5519 8.81139C52.0894 9.41288 54.5174 10.3835 56.7527 11.6899C58.9659 12.9734 60.95 14.5934 62.6285 16.4874C64.3777 18.5296 65.7143 20.8707 66.5689 23.3891C67.5465 26.2619 68.0295 29.2701 67.9986 32.2939C67.9619 38.1376 65.7812 43.7797 61.8439 48.2182C60.1507 50.0713 58.1467 51.6361 55.9158 52.8474C53.9924 53.9128 51.8213 54.4918 49.6042 54.5307C48.0733 54.5502 46.5784 54.0829 45.3499 53.2008C44.7333 52.7601 44.2311 52.187 43.8832 51.5268C43.5352 50.8665 43.3509 50.1372 43.3448 49.3965C42.2009 51.0754 40.6311 52.444 38.7848 53.3721C36.9385 54.3002 34.877 54.757 32.7963 54.699C31.1595 54.7696 29.5271 54.4856 28.0187 53.8682C26.5103 53.2507 25.164 52.3152 24.0786 51.1303C21.9018 48.6879 20.7511 45.5472 20.853 42.3265C20.8674 39.676 21.3449 37.0468 22.2653 34.5495C23.1817 32.0328 24.4803 29.6614 26.1186 27.5132C27.7512 25.4021 29.8317 23.6518 32.221 22.379C34.6092 21.0776 37.3072 20.3988 40.0495 20.4095C41.9561 20.3908 43.8376 20.8305 45.5243 21.6889C47.162 22.5317 48.4896 23.8429 49.3252 25.4427L49.6739 24.3149C49.9518 23.5249 50.5431 22.8738 51.3179 22.5045C52.0927 22.1353 52.9876 22.078 53.8061 22.3454C54.1227 22.4494 54.4222 22.5967 54.6953 22.783C54.9552 22.9832 55.162 23.2404 55.2984 23.5331C55.4349 23.8258 55.4971 24.1458 55.4799 24.4664C55.4804 24.7812 55.4274 25.094 55.323 25.3922L49.6739 43.5385C49.1758 44.9209 48.8538 46.3567 48.715 47.8142C48.6629 48.0861 48.6811 48.3663 48.7679 48.6298C48.8547 48.8934 49.0073 49.1322 49.2125 49.3252C49.4176 49.5183 49.6688 49.6595 49.9439 49.7366C50.219 49.8136 50.5095 49.824 50.7898 49.7668C52.789 49.6433 54.6621 48.7813 56.0204 47.3597C57.9041 45.5618 59.3511 43.3828 60.2572 40.9798C61.3392 38.3553 61.8954 35.5563 61.8962 32.7315C61.9192 30.2441 61.5428 27.7683 60.7803 25.3922C60.1394 23.3436 59.1238 21.4224 57.7814 19.7194C56.5101 18.1685 54.9705 16.8415 53.2307 15.7972C51.4963 14.7409 49.6023 13.9515 47.6165 13.4574C45.5792 12.9403 43.4812 12.68 41.3746 12.683C38.7029 12.6867 36.0446 13.0494 33.4763 13.7604C30.8317 14.4837 28.3115 15.5783 25.9965 17.0092C23.6625 18.4311 21.5492 20.1653 19.7197 22.1602C17.8352 24.2618 16.3692 26.6815 15.3957 29.2975C14.3006 32.1463 13.7511 35.1637 13.7742 38.2024C13.717 41.8011 14.3923 45.3757 15.7619 48.7232C16.9429 51.6209 18.8051 54.2141 21.2017 56.2982C23.5174 58.2387 26.1909 59.7406 29.0826 60.7253C32.1337 61.7672 35.3486 62.2912 38.5849 62.274C42.0437 62.2741 45.4825 61.7689 48.7847 60.7758C49.1146 60.6614 49.4629 60.6044 49.8134 60.6075C50.1405 60.6026 50.4649 60.6646 50.7654 60.7893C51.0659 60.9141 51.3356 61.0988 51.5569 61.3314C51.7794 61.555 51.954 61.8187 52.0707 62.1076C52.1874 62.3964 52.2438 62.7047 52.2369 63.0147C52.2788 63.5043 52.136 63.992 51.8348 64.3879C51.5336 64.7839 51.0944 65.0614 50.598 65.1694C46.4829 66.3841 42.2079 67.0191 37.9049 67.0547C33.9069 67.0496 29.941 66.3658 26.1883 65.0347ZM40.59 47.5785C42.3138 46.3836 43.5919 44.6833 44.234 42.7305L47.878 30.358L47.634 29.853C47.4073 29.4475 47.1323 29.069 46.8145 28.7252C46.3775 28.2387 45.8993 27.7883 45.3848 27.3785C44.7315 26.8752 43.9946 26.4825 43.2053 26.217C41.1418 25.5214 38.8829 25.5995 36.8762 26.4359C35.7768 26.8854 34.7677 27.5178 33.8948 28.3043C32.9874 29.1216 32.1801 30.0366 31.4887 31.0314C30.7963 32.0671 30.2122 33.1666 29.7451 34.3139C29.2551 35.4617 28.8757 36.6507 28.6118 37.8657C28.3484 39.0212 28.2139 40.2007 28.2108 41.3839C28.1954 42.1437 28.242 42.9036 28.3503 43.6564C28.4308 44.3262 28.5827 44.9862 28.8036 45.6259C28.9948 46.2209 29.2706 46.7874 29.6231 47.3092C29.9387 47.7794 30.3405 48.1901 30.8087 48.5212C31.3076 48.8703 31.8692 49.1272 32.4651 49.2787C33.1611 49.4756 33.8846 49.5665 34.6096 49.548C36.791 49.574 38.9194 48.8989 40.6598 47.629L40.59 47.5785Z" fill="#103D66" stroke="#263238" stroke-linecap="round" stroke-linejoin="round"/>
</svg>
