<svg width="88" height="88" viewBox="0 0 88 88" fill="none" xmlns="http://www.w3.org/2000/svg">
<g clip-path="url(#clip0)">
<path fill-rule="evenodd" clip-rule="evenodd" d="M73.1827 17.9893C65.4644 10.262 55.1997 6.00453 44.2644 6C21.7309 6 3.39201 24.3384 3.38295 46.8779C3.37993 54.083 5.26216 61.1165 8.83981 67.3161L3.04004 88.5L24.7119 82.815C30.6834 86.0724 37.4061 87.789 44.2477 87.791H44.2649C66.7958 87.791 85.1367 69.4511 85.1453 46.9106C85.1498 35.9868 80.9014 25.7161 73.1827 17.9893ZM44.2644 80.887H44.2503C38.1534 80.8845 32.1739 79.2459 26.9562 76.1507L25.716 75.414L12.8555 78.7877L16.2882 66.2491L15.48 64.9635C12.0786 59.5535 10.2825 53.3005 10.2855 46.8804C10.2925 28.1462 25.5357 12.9045 44.278 12.9045C53.3538 12.9076 61.8852 16.4464 68.3003 22.8691C74.7154 29.2917 78.2463 37.8288 78.2432 46.9081C78.2352 65.6438 62.993 80.887 44.2644 80.887ZM62.9024 55.4386C61.8812 54.927 56.8589 52.4566 55.9223 52.1152C54.9867 51.7743 54.3049 51.6046 53.6247 52.6268C52.9434 53.649 50.9861 55.9502 50.3899 56.6314C49.7937 57.3132 49.1985 57.3988 48.1769 56.8872C47.1552 56.3762 43.864 55.2971 39.9621 51.8171C36.9258 49.1086 34.8759 45.7635 34.2797 44.7414C33.6845 43.7182 34.2746 43.2187 34.7278 42.6567C35.8336 41.2836 36.9409 39.8439 37.2813 39.1626C37.6222 38.4808 37.4515 37.8842 37.1957 37.3731C36.9409 36.862 34.898 31.8341 34.047 29.7882C33.2172 27.7972 32.3758 28.0661 31.7484 28.0349C31.1532 28.0052 30.4719 27.9992 29.7906 27.9992C29.1098 27.9992 28.003 28.2545 27.0665 29.2776C26.1304 30.3003 23.4918 32.7712 23.4918 37.7991C23.4918 42.8269 27.1521 47.684 27.6626 48.3658C28.1732 49.0476 34.8658 59.3652 45.1123 63.7893C47.5495 64.8427 49.4518 65.4706 50.9358 65.9414C53.383 66.7189 55.6091 66.6091 57.3695 66.3462C59.3323 66.0527 63.4125 63.8749 64.2645 61.4891C65.1154 59.1028 65.1154 57.0579 64.8596 56.6314C64.6049 56.2055 63.9236 55.9502 62.9024 55.4386Z" fill="#103D66"/>
</g>
<defs>
<clipPath id="clip0">
<rect width="88" height="88" fill="white"/>
</clipPath>
</defs>
</svg>
