<svg width="78" height="75" viewBox="0 0 78 75" fill="none" xmlns="http://www.w3.org/2000/svg">
<path d="M76.9918 37.4959C77.0959 42.2605 76.2065 46.9969 74.3759 51.4264C72.5453 55.8559 69.8106 59.889 66.3327 63.2881C62.8548 66.6873 58.704 69.3839 54.1246 71.2192C49.5452 73.0545 44.6299 73.9915 39.6678 73.9749C29.5417 73.9423 19.8302 70.1087 12.607 63.2928C5.38384 56.477 1.22154 47.219 1.00893 37.4959C0.900121 32.7293 1.78617 27.9901 3.61484 23.5576C5.4435 19.1252 8.17776 15.0892 11.6564 11.6878C15.135 8.28642 19.2876 5.58837 23.8692 3.75282C28.4508 1.91727 33.3687 0.981354 38.3329 1.00028C48.4606 1.03724 58.1722 4.87449 65.3949 11.693C72.6176 18.5115 76.7793 27.7713 76.9918 37.4959Z" fill="white" stroke="#263238" stroke-linecap="round" stroke-linejoin="round"/>
<path d="M62.2738 34.185C50.4805 26.7495 27.3574 26.7495 16.1134 34.185C14.0571 34.5561 12.2079 35.6264 10.9033 37.2007C9.5986 38.775 8.92543 40.7482 9.00656 42.7605C9.17823 47.5688 29.9324 47.5688 29.7607 42.7605C29.6596 40.7503 28.8619 38.8306 27.4947 37.3078C35.2785 35.6887 43.3319 35.6887 51.1157 37.3078C49.8489 38.858 49.1922 40.7894 49.2618 42.7605C49.4334 47.5688 70.1875 47.5688 69.9987 42.7605C69.9011 40.703 69.0856 38.7373 67.6838 37.1812C66.282 35.6251 64.376 34.5695 62.2738 34.185Z" fill="#103D66" stroke="#263238" stroke-linecap="round" stroke-linejoin="round"/>
</svg>
