<svg width="79" height="75" viewBox="0 0 79 75" fill="none" xmlns="http://www.w3.org/2000/svg">
<path d="M77.9938 29.904C78.2046 38.8418 73.0404 46.8344 64.7497 52.1572V73.8633L48.2561 58.2761C45.5894 58.7261 42.8851 58.9481 40.1761 58.9394C18.9223 58.9394 1.37479 45.9389 1.00592 29.904C0.637053 13.8691 17.5522 0.885254 38.8236 0.885254C60.0949 0.885254 77.7127 13.952 77.9938 29.904Z" fill="white" stroke="#263238" stroke-linecap="round" stroke-linejoin="round"/>
<path d="M23 29.4695C23.0035 30.4454 22.7132 31.4004 22.1659 32.2135C21.6186 33.0266 20.8389 33.6613 19.9256 34.0371C19.0123 34.413 18.0064 34.5131 17.0353 34.3248C16.0643 34.1366 15.1717 33.6683 14.4707 32.9795C13.7697 32.2906 13.2917 31.4121 13.0974 30.4552C12.903 29.4982 13.001 28.5059 13.3789 27.604C13.7568 26.702 14.3977 25.9309 15.2203 25.3884C16.0429 24.8458 17.0103 24.5562 18 24.5562C19.323 24.5561 20.5921 25.0732 21.5293 25.9942C22.4664 26.9151 22.9953 28.1648 23 29.4695Z" fill="#103D66" stroke="#263238" stroke-linecap="round" stroke-linejoin="round"/>
<path d="M44 29.4695C44.0031 30.4454 43.7419 31.4004 43.2493 32.2135C42.7567 33.0266 42.0551 33.6613 41.2331 34.0371C40.4111 34.413 39.5058 34.5131 38.6318 34.3248C37.7578 34.1366 36.9546 33.6683 36.3236 32.9795C35.6927 32.2906 35.2626 31.4121 35.0876 30.4552C34.9127 29.4982 35.0009 28.5059 35.341 27.604C35.6811 26.702 36.2579 25.9309 36.9983 25.3884C37.7386 24.8458 38.6093 24.5562 39.5 24.5562C40.6907 24.5561 41.8329 25.0732 42.6764 25.9942C43.5198 26.9151 43.9958 28.1648 44 29.4695Z" fill="#103D66" stroke="#263238" stroke-linecap="round" stroke-linejoin="round"/>
<path d="M66 29.4695C66.0038 30.4454 65.6845 31.4004 65.0825 32.2135C64.4805 33.0266 63.6229 33.6613 62.6182 34.0371C61.6136 34.413 60.5071 34.5131 59.4389 34.3248C58.3708 34.1366 57.3889 33.6683 56.6178 32.9795C55.8467 32.2906 55.3209 31.4121 55.1071 30.4552C54.8933 29.4982 55.0011 28.5059 55.4168 27.604C55.8325 26.702 56.5374 25.9309 57.4423 25.3884C58.3472 24.8458 59.4113 24.5562 60.5 24.5562C61.9553 24.5561 63.3514 25.0732 64.3823 25.9942C65.4131 26.9151 65.9948 28.1648 66 29.4695Z" fill="#103D66" stroke="#263238" stroke-linecap="round" stroke-linejoin="round"/>
</svg>
