<svg width="216" height="181" viewBox="0 0 216 181" fill="none" xmlns="http://www.w3.org/2000/svg">
<path d="M26.853 4.24955L32.6477 94.7059L150.807 87.7341L147.234 20.3989L130.024 0.180542L26.853 4.24955Z" fill="#263238"/>
<path d="M0 96.7215C0.348551 98.4581 10.3839 180.382 10.3839 180.382L186.242 169.722L216 166.236L202.276 89.9526L181.261 85.5541L0 96.7215Z" fill="#103D66"/>
<path opacity="0.4" d="M181.261 85.5396L0 96.7199C0.348551 98.4565 10.3839 180.382 10.3839 180.382L193.475 169.265L181.261 85.5396Z" fill="black"/>
<path d="M133.089 88.7735L32.6477 94.7059L26.853 4.24955L130.024 0.180542L133.089 88.7735Z" fill="#455A64"/>
<path d="M64.3076 2.78062L66.428 30.6539L71.8015 27.9667L74.7787 30.6539L78.482 27.9667L84.2041 30.6539V1.99475L64.3076 2.78062Z" fill="#263238"/>
<path d="M106.294 90.6738L99.4243 22.7808L166.564 38.9301L173.041 85.7935L106.294 90.6738Z" fill="#103D66"/>
<path d="M166.52 38.9428C166.401 39.1166 166.26 39.2782 166.099 39.4245L164.807 40.7555L159.869 45.6738L142.717 62.4696L142.456 62.7231L142.18 62.4823L133.117 54.1161L109.198 32.0597L102.009 25.316L100.078 23.4653C99.8383 23.2601 99.6286 23.0302 99.4531 22.7808C99.7187 22.9562 99.9665 23.1513 100.194 23.3639L102.227 25.1385L109.576 31.7301L133.655 53.6597L142.775 62.0386H142.238L159.665 45.3949L164.763 40.6034L166.143 39.3358C166.253 39.194 166.38 39.0623 166.52 38.9428Z" fill="#263238"/>
<path d="M128.92 51.5203C129.109 51.609 124.317 59.6199 118.232 69.418C112.146 79.2161 107.063 87.0875 106.875 86.9988C106.686 86.91 111.478 78.8992 117.563 69.1011C123.649 59.303 128.761 51.4315 128.92 51.5203Z" fill="#263238"/>
<path d="M171.473 85.7946C171.298 85.8834 166.651 79.3935 161.089 71.3067C155.526 63.2198 151.155 56.5652 151.344 56.4638C151.533 56.3624 156.165 62.8649 161.728 70.9644C167.29 79.064 171.662 85.7059 171.473 85.7946Z" fill="#263238"/>
<path d="M142.354 88.0259L137.968 44.7885L180.724 55.0813L184.848 84.9203L142.354 88.0259Z" fill="#103D66"/>
<path opacity="0.4" d="M142.354 88.0259L137.968 44.7885L180.724 55.0813L184.848 84.9203L142.354 88.0259Z" fill="white"/>
<path d="M180.724 55.0808C180.419 55.5049 180.063 55.9 179.664 56.2596C178.865 57.0834 177.819 58.1355 176.556 59.4157L165.664 70.139L165.402 70.4052L165.126 70.1517L159.317 64.828C153.348 59.365 147.974 54.3836 144.111 50.7585L139.58 46.4362C138.994 45.9285 138.459 45.3772 137.983 44.7885C138.628 45.235 139.23 45.7267 139.784 46.2588L144.503 50.429C148.468 53.978 153.9 58.9087 159.869 64.3718L165.678 69.708H165.068L176.149 59.1369L179.431 56.1075C179.824 55.7303 180.257 55.3866 180.724 55.0808Z" fill="#263238"/>
<path d="M156.761 63.0918C156.935 63.1805 153.943 68.3018 150.066 74.5005C147.841 78.3239 145.388 82.0432 142.717 85.6429C144.715 81.7411 146.945 77.933 149.398 74.2343C151.624 70.4089 154.082 66.6895 156.761 63.0918Z" fill="#263238"/>
<path d="M183.861 84.9191C181.406 81.9851 179.155 78.9246 177.122 75.7542C174.866 72.6959 172.834 69.5163 171.037 66.2344C175.725 72.239 180.007 78.4779 183.861 84.9191Z" fill="#263238"/>
<path d="M169.599 53.2549V56.7352L175.844 57.3702L176.178 54.7156L169.599 53.2549Z" fill="white"/>
<path d="M147.553 35.6216V40.6917L159.346 42.3901L160 38.5115L147.553 35.6216Z" fill="white"/>
<path d="M101.53 115.951L100.949 90.6738L77.4656 92.0556L79.9781 117.738L101.53 115.951Z" fill="#103D66"/>
<path d="M178.111 129.231L138.684 132.496L141.993 162.934L181.42 159.669L178.111 129.231Z" fill="#FAFAFA"/>
<path d="M181.363 159.708C181.314 159.516 181.281 159.321 181.261 159.125C181.261 158.707 181.13 158.161 181.043 157.477C180.869 156.007 180.608 153.915 180.288 151.291C179.664 145.942 178.836 138.388 177.732 129.299L178.081 129.553L138.68 132.861C138.593 132.937 139.319 132.189 139.014 132.506V132.734V133V133.508L139.13 134.547L139.348 136.6C139.508 137.957 139.653 139.3 139.798 140.644C140.074 143.318 140.364 145.93 140.64 148.49C141.178 153.56 141.701 158.44 142.165 162.915L141.802 162.661L170.253 160.456L178.328 159.86L180.491 159.721C180.748 159.703 181.005 159.703 181.261 159.721C181.037 159.766 180.809 159.796 180.579 159.809L178.487 160.025L170.5 160.76L141.875 163.295H141.541V163.004C141.032 158.516 140.495 153.674 139.929 148.579C139.658 146.044 139.372 143.428 139.072 140.733C138.927 139.389 138.781 138.045 138.636 136.676C138.564 136.005 138.491 135.32 138.404 134.636L138.302 133.596V133.089V132.823V132.595C137.997 132.912 138.709 132.151 138.651 132.227L178.066 129.02H178.386V129.299C179.315 138.464 180.085 146.094 180.637 151.494C180.884 154.093 181.072 156.159 181.218 157.629C181.218 158.301 181.319 158.833 181.348 159.239C181.366 159.395 181.371 159.551 181.363 159.708Z" fill="#263238"/>
<path d="M174.973 136.562C174.973 136.753 168.103 137.528 159.578 138.315C154.447 138.906 149.285 139.271 144.111 139.408C144.111 139.23 150.981 138.442 159.506 137.655C168.031 136.867 174.958 136.384 174.973 136.562Z" fill="#263238"/>
<path d="M174.74 141.734C173.37 142.165 171.955 142.475 170.514 142.661C167.871 143.118 164.197 143.651 160.116 144.07C156.035 144.489 152.302 144.718 149.616 144.794C148.166 144.908 146.708 144.908 145.259 144.794C146.695 144.546 148.152 144.402 149.616 144.362C152.288 144.146 155.977 143.854 160.043 143.435C164.11 143.016 167.784 142.559 170.441 142.165C171.86 141.928 173.297 141.784 174.74 141.734Z" fill="#263238"/>
<path d="M176.411 153.041C175.035 153.468 173.614 153.779 172.17 153.968C169.527 154.425 165.852 154.959 161.772 155.378C157.691 155.797 153.973 156.026 151.271 156.102C149.823 156.225 148.363 156.225 146.915 156.102C148.351 155.854 149.808 155.709 151.271 155.67C153.944 155.467 157.647 155.162 161.713 154.743C165.78 154.324 169.454 153.866 172.112 153.472C173.53 153.234 174.967 153.09 176.411 153.041Z" fill="#263238"/>
<path d="M174.421 147.249C169.681 148.186 164.886 148.898 160.058 149.383C155.25 150.097 150.402 150.589 145.535 150.856C150.278 149.934 155.072 149.221 159.898 148.722C164.707 148.016 169.555 147.524 174.421 147.249Z" fill="#263238"/>
</svg>
