<svg width="94" height="94" viewBox="0 0 94 94" fill="none" xmlns="http://www.w3.org/2000/svg">
<path d="M47 44.2461C48.5209 44.2461 49.7539 43.0131 49.7539 41.4922C49.7539 39.9712 48.5209 38.7383 47 38.7383C45.4791 38.7383 44.2461 39.9712 44.2461 41.4922C44.2461 43.0131 45.4791 44.2461 47 44.2461Z" fill="#103D66"/>
<path d="M84.5192 59.121C83.9706 58.8051 83.3917 58.5745 82.8007 58.3922V35.592C83.3901 35.4108 83.9726 35.1947 84.5192 34.879C88.4618 32.6011 89.8199 27.5396 87.5446 23.5918C85.264 19.6491 80.2027 18.2858 76.26 20.5664H76.2547C75.8097 20.8239 75.4081 21.1267 75.0307 21.4494L55.11 9.76296C55.2005 9.2746 55.2617 8.77578 55.2617 8.26172C55.2617 3.70602 51.5556 0 47 0C42.4443 0 38.7382 3.70602 38.7382 8.26172C38.7382 8.77578 38.7994 9.2746 38.8899 9.76296L18.969 21.4493C18.5916 21.1265 18.1901 20.8236 17.745 20.5662H17.7397C13.7917 18.2883 8.73296 19.6491 6.45511 23.5944C4.17983 27.5396 5.53806 32.6011 9.48055 34.879C10.0275 35.1946 10.6098 35.4108 11.199 35.5922V58.392C10.6084 58.5739 10.0295 58.8042 9.48055 59.1209C5.53806 61.3989 4.18002 66.4602 6.45511 70.4082C8.75224 74.3806 13.8207 75.6924 17.745 73.4336C18.1901 73.1761 18.5916 72.8733 18.969 72.5506L38.8899 84.2368C38.7994 84.7254 38.7382 85.2242 38.7382 85.7383C38.7382 90.294 42.4443 94 47 94C51.5556 94 55.2617 90.294 55.2617 85.7383C55.2617 85.2966 55.1985 84.8713 55.1313 84.448L75.7318 73.0527C79.9075 75.925 85.2387 74.3975 87.5448 70.4053C89.8199 66.4602 88.4618 61.3989 84.5192 59.121ZM49.7539 71.5166C51.6526 71.2742 53.5065 70.8883 55.2617 70.2626V63.5234C55.2617 58.9677 51.5556 55.2617 47 55.2617C42.4443 55.2617 38.7382 58.9677 38.7382 63.5234V70.2626C40.4934 70.8883 42.3473 71.2742 44.246 71.5166V77.9838C43.2903 78.3248 42.4257 78.8341 41.6682 79.4801L21.6967 67.7645C21.8772 66.7859 21.8852 65.7824 21.7028 64.7853L27.0762 61.6838C28.7775 63.9835 30.851 65.9928 33.2304 67.5893V63.5234C33.2304 55.9313 39.4078 49.7539 47 49.7539C42.4443 49.7539 38.7382 46.0479 38.7382 41.4922C38.7382 36.9365 42.4443 33.2305 47 33.2305C51.5556 33.2305 55.2617 36.9365 55.2617 41.4922C55.2617 46.0479 51.5556 49.7539 47 49.7539C54.5921 49.7539 60.7695 55.9313 60.7695 63.5234V67.5895C63.1489 65.993 65.2224 63.9837 66.9237 61.684L72.2968 64.7855C72.0645 66.0548 72.1169 67.3431 72.4672 68.5596L52.4936 79.6136C51.7009 78.902 50.7768 78.3486 49.7539 77.9838V71.5166ZM16.707 58.7687V35.2316C17.5078 34.9015 18.2664 34.5217 18.9173 33.967L24.3166 37.0837C22.9813 40.1257 22.2148 43.4706 22.2148 47C22.2148 50.5298 22.9907 53.8693 24.3272 56.91L18.9169 60.033C18.2661 59.4783 17.5078 59.0988 16.707 58.7687ZM77.2929 35.2313V58.7684C76.4921 59.0985 75.7335 59.4783 75.0826 60.033L69.6727 56.91C71.0092 53.8693 71.7851 50.5298 71.7851 47C71.7851 43.4706 71.0186 40.1257 69.6833 37.0837L75.0828 33.967C75.7338 34.5217 76.4921 34.9012 77.2929 35.2313ZM72.2971 29.2145L66.8784 32.3422C62.8819 26.9387 56.7684 23.2821 49.7539 22.4932V16.0162C50.7096 15.6752 51.5742 15.1659 52.3317 14.5199L72.3032 26.2355C72.1226 27.2141 72.1145 28.2174 72.2971 29.2145ZM44.246 22.4932C37.2315 23.2821 31.118 26.9387 27.1215 32.3422L21.7031 29.2145C21.886 28.2174 21.8775 27.2143 21.6967 26.2357L41.6682 14.5199C42.4255 15.1659 43.2903 15.6752 44.246 16.0162V22.4932Z" fill="#103D66"/>
</svg>
