<svg width="92" height="92" viewBox="0 0 92 92" fill="none" xmlns="http://www.w3.org/2000/svg">
<g clip-path="url(#clip0)">
<path d="M63.6148 5.68213H10.4039C4.66648 5.68213 0 10.3486 0 16.086V62.7149C0 64.9233 2.49748 66.1682 4.26039 64.9089L19.0792 54.3361C20.3227 53.4503 21.7853 52.9813 23.3127 52.9813H55.9062C61.6436 52.9813 66.3101 48.3148 66.3101 42.5774V8.37744C66.3101 6.88963 65.1026 5.68213 63.6148 5.68213ZM50.5227 38.3331H19.3811C17.8933 38.3331 16.6858 37.1274 16.6858 35.6378C16.6858 34.15 17.8933 32.9425 19.3811 32.9425H50.5227C52.0106 32.9425 53.2181 34.15 53.2181 35.6378C53.2181 37.1274 52.0106 38.3331 50.5227 38.3331ZM50.5227 25.755H19.3811C17.8933 25.755 16.6858 24.5493 16.6858 23.0597C16.6858 21.5719 17.8933 20.3644 19.3811 20.3644H50.5227C52.0106 20.3644 53.2181 21.5719 53.2181 23.0597C53.2181 24.5493 52.0106 25.755 50.5227 25.755Z" fill="#103D66"/>
<path d="M92 36.9926V83.6197C92 85.8132 89.5151 87.0819 87.7396 85.8137L72.9208 75.2427C71.6774 74.3568 70.2147 73.8878 68.6874 73.8878H36.0938C30.3564 73.8878 25.6899 69.2196 25.6899 63.4821V58.3718H55.9062C64.6156 58.3718 71.7007 51.2868 71.7007 42.5773V26.5869H81.5961C87.3335 26.5869 92 31.2552 92 36.9926Z" fill="#103D66"/>
</g>
<defs>
<clipPath id="clip0">
<rect width="92" height="92" fill="white"/>
</clipPath>
</defs>
</svg>
