<svg width="208" height="147" viewBox="0 0 208 147" fill="none" xmlns="http://www.w3.org/2000/svg">
<path d="M88.6725 20.2235C86.6785 9.23567 94.8518 0.317993 106.948 0.317993H18.5745C6.47882 0.317993 -1.69456 9.21576 0.299475 20.2235H88.6725Z" fill="#103D66"/>
<path opacity="0.3" d="M88.6725 20.2235C86.6785 9.23567 94.8518 0.317993 106.948 0.317993H18.5745C6.47882 0.317993 -1.69456 9.21576 0.299475 20.2235H88.6725Z" fill="black"/>
<path d="M106.947 0.317993H18.5745C24.6901 0.50257 30.5538 2.57512 35.1985 6.19384C39.8433 9.81256 42.9917 14.7613 44.1244 20.2239L63.4731 126.362C64.6095 131.823 67.759 136.77 72.403 140.388C77.0469 144.006 82.9086 146.08 89.023 146.268H133.593C145.689 146.268 153.862 137.35 151.868 126.362L132.497 20.2239C131.365 14.7613 128.216 9.81256 123.572 6.19384C118.927 2.57512 113.063 0.50257 106.947 0.317993Z" fill="#103D66"/>
<path d="M107.298 126.422C109.292 137.41 101.119 146.328 89.0232 146.328H177.396C180.147 146.413 182.882 145.926 185.394 144.904C187.906 143.883 190.128 142.353 191.89 140.434C193.653 138.514 194.91 136.253 195.565 133.825C196.22 131.397 196.257 128.865 195.671 126.422H107.298Z" fill="#103D66"/>
<path opacity="0.3" d="M107.298 126.422C109.292 137.41 101.119 146.328 89.0232 146.328H177.396C180.147 146.413 182.882 145.926 185.394 144.904C187.906 143.883 190.128 142.353 191.89 140.434C193.653 138.514 194.91 136.253 195.565 133.825C196.22 131.397 196.257 128.865 195.671 126.422H107.298Z" fill="black"/>
<path d="M121.519 29.4441H58.4334C58.0666 29.4321 57.7153 29.3072 57.4367 29.0899C57.1581 28.8727 56.9687 28.5758 56.8995 28.2479C56.8621 28.101 56.8626 27.9482 56.901 27.8014C56.9394 27.6547 57.0146 27.518 57.1207 27.4022C57.2268 27.2863 57.361 27.1944 57.5127 27.1336C57.6644 27.0727 57.8295 27.0447 57.9951 27.0517H121.081C121.448 27.0638 121.799 27.1886 122.078 27.4059C122.356 27.6232 122.546 27.92 122.615 28.2479C122.652 28.3949 122.652 28.5477 122.613 28.6944C122.575 28.8412 122.5 28.9778 122.394 29.0937C122.288 29.2096 122.154 29.3015 122.002 29.3623C121.85 29.4231 121.685 29.4511 121.519 29.4441Z" fill="white"/>
<path d="M86.569 37.7265H59.9452C59.5785 37.7144 59.2271 37.5895 58.9485 37.3722C58.6699 37.1548 58.4805 36.8579 58.4113 36.53C58.3739 36.383 58.3745 36.2301 58.4128 36.0834C58.4512 35.9366 58.5264 35.7999 58.6325 35.684C58.7387 35.5681 58.8728 35.4761 59.0245 35.4153C59.1763 35.3545 59.3414 35.3265 59.507 35.3334H86.1307C86.4974 35.3455 86.8488 35.4704 87.1274 35.6878C87.406 35.9051 87.5954 36.202 87.6646 36.53C87.6975 36.6765 87.6937 36.8279 87.6536 36.973C87.6135 37.118 87.538 37.253 87.4328 37.3679C87.3276 37.4828 87.1953 37.5747 87.0458 37.6368C86.8963 37.6988 86.7333 37.7295 86.569 37.7265Z" fill="white"/>
<path d="M111.199 37.7264H92.7921C92.4281 37.7134 92.0797 37.5878 91.8048 37.3701C91.5299 37.1525 91.3448 36.856 91.2802 36.5295C91.2433 36.3842 91.2435 36.2331 91.2807 36.0879C91.3179 35.9426 91.3911 35.8071 91.4948 35.6916C91.5984 35.5761 91.7297 35.4837 91.8786 35.4215C92.0275 35.3593 92.1901 35.3289 92.3539 35.3327H110.76C111.124 35.3456 111.473 35.4713 111.748 35.6889C112.023 35.9066 112.208 36.2031 112.272 36.5295C112.309 36.6749 112.309 36.8259 112.272 36.9712C112.235 37.1164 112.161 37.252 112.058 37.3675C111.954 37.483 111.823 37.5754 111.674 37.6376C111.525 37.6998 111.362 37.7302 111.199 37.7264Z" fill="white"/>
<path d="M124.631 46.1039H61.4573C61.0925 46.0964 60.7415 45.9757 60.4625 45.7617C60.1835 45.5478 59.9933 45.2536 59.9234 44.9278C59.886 44.7809 59.8865 44.6281 59.9249 44.4814C59.9633 44.3346 60.0385 44.198 60.1446 44.0822C60.2507 43.9663 60.3849 43.8744 60.5366 43.8136C60.6883 43.7528 60.8534 43.7248 61.019 43.7318H124.105C124.472 43.7438 124.823 43.8687 125.102 44.0859C125.38 44.3032 125.57 44.6 125.639 44.9278C125.671 45.0667 125.669 45.2103 125.634 45.3486C125.599 45.4869 125.531 45.6165 125.435 45.7285C125.339 45.8404 125.217 45.932 125.078 45.9968C124.94 46.0617 124.787 46.0982 124.631 46.1039Z" fill="white"/>
<path d="M119.832 54.3073H62.9693C62.6025 54.2952 62.2511 54.1704 61.9725 53.9531C61.6939 53.7358 61.5046 53.439 61.4354 53.1112C61.4025 52.9647 61.4062 52.8134 61.4464 52.6684C61.4865 52.5234 61.5619 52.3884 61.6671 52.2736C61.7723 52.1587 61.9046 52.0668 62.0542 52.0048C62.2037 51.9427 62.3667 51.9121 62.531 51.9151H119.503C119.87 51.9272 120.222 52.052 120.5 52.2693C120.779 52.4865 120.968 52.7833 121.037 53.1112C121.073 53.2665 121.068 53.4273 121.022 53.5805C120.977 53.7336 120.891 53.8745 120.773 53.9915C120.655 54.1085 120.508 54.1982 120.345 54.2531C120.181 54.308 120.005 54.3266 119.832 54.3073Z" fill="white"/>
<path d="M102.718 62.5881H64.4812C64.1145 62.576 63.7631 62.4511 63.4845 62.2337C63.2059 62.0163 63.0165 61.7194 62.9474 61.3914C62.9139 61.2457 62.9173 61.0951 62.9575 60.9509C62.9977 60.8067 63.0735 60.6727 63.1791 60.5592C63.2848 60.4457 63.4176 60.3557 63.5673 60.296C63.717 60.2362 63.8797 60.2084 64.043 60.2146H102.302C102.665 60.2291 103.012 60.3524 103.289 60.5652C103.567 60.7781 103.759 61.0686 103.836 61.3914C103.869 61.5396 103.865 61.6929 103.824 61.8395C103.783 61.9861 103.705 62.1222 103.597 62.2375C103.49 62.3528 103.355 62.4443 103.202 62.505C103.05 62.5658 102.885 62.5942 102.718 62.5881Z" fill="white"/>
<path d="M129.013 70.8881H65.9931C65.6264 70.8761 65.275 70.7512 64.9964 70.5339C64.7178 70.3166 64.5284 70.0197 64.4592 69.6918C64.4263 69.5453 64.43 69.3939 64.4702 69.2489C64.5103 69.1038 64.5857 68.9688 64.691 68.854C64.7962 68.7391 64.9284 68.6472 65.078 68.5851C65.2275 68.5231 65.3905 68.4924 65.5548 68.4954H128.641C129.008 68.5075 129.359 68.6324 129.638 68.8497C129.916 69.067 130.106 69.3639 130.175 69.6918C130.214 69.844 130.213 70.0026 130.171 70.1544C130.13 70.3061 130.048 70.4465 129.935 70.5637C129.821 70.681 129.678 70.7716 129.517 70.8281C129.357 70.8845 129.184 70.9051 129.013 70.8881Z" fill="white"/>
<path d="M130.591 79.1685H67.505C67.1383 79.1565 66.7869 79.0316 66.5083 78.8145C66.2297 78.5973 66.0403 78.3006 65.9712 77.9728C65.9382 77.8264 65.942 77.6751 65.9821 77.5301C66.0222 77.3852 66.0977 77.2503 66.2029 77.1355C66.3081 77.0207 66.4404 76.9288 66.5899 76.8668C66.7395 76.8048 66.9025 76.7742 67.0668 76.7772H130.175C130.539 76.7901 130.887 76.9156 131.162 77.1331C131.437 77.3505 131.622 77.6468 131.687 77.9728C131.724 78.1197 131.724 78.2725 131.685 78.4191C131.647 78.5658 131.572 78.7024 131.465 78.8182C131.359 78.934 131.225 79.0259 131.073 79.0867C130.922 79.1475 130.757 79.1755 130.591 79.1685Z" fill="white"/>
<path d="M107.276 87.4517H69.017C68.6545 87.4372 68.3074 87.3139 68.0299 87.101C67.7525 86.8881 67.5602 86.5976 67.4831 86.2748C67.4502 86.1282 67.454 85.9767 67.4941 85.8317C67.5342 85.6866 67.6097 85.5516 67.7149 85.4366C67.8201 85.3217 67.9524 85.2298 68.1019 85.1677C68.2515 85.1056 68.4144 85.0749 68.5787 85.078H106.838C107.205 85.09 107.556 85.215 107.835 85.4324C108.113 85.6497 108.303 85.9467 108.372 86.2748C108.405 86.4204 108.402 86.5711 108.362 86.7153C108.322 86.8595 108.246 86.9935 108.14 87.107C108.034 87.2205 107.902 87.3106 107.752 87.3703C107.602 87.43 107.44 87.4579 107.276 87.4517Z" fill="white"/>
<path d="M143.495 110.237L147.443 112.462L208 23.7707L204.052 21.5463L143.495 110.237Z" fill="#263238"/>
<path opacity="0.3" d="M143.495 110.237L147.443 112.462L208 23.7707L204.052 21.5463L143.495 110.237Z" fill="black"/>
<path d="M135.615 105.803L139.562 108.027L200.12 19.3378L196.172 17.1134L135.615 105.803Z" fill="#263238"/>
<path opacity="0.3" d="M135.615 105.803L139.562 108.027L200.12 19.3378L196.172 17.1134L135.615 105.803Z" fill="black"/>
<path d="M139.582 108.013L143.53 110.238L204.088 21.5451L200.14 19.3207L139.582 108.013Z" fill="#263238"/>
<path d="M135.521 114.34L139.071 116.35L147.464 112.469L135.631 105.801L135.521 114.34Z" fill="#FF8B7B"/>
<path d="M135.478 118.029L139.071 116.354L135.521 114.34L135.478 118.029Z" fill="#263238"/>
<path d="M133.396 118.758H133.242C130.306 117.659 127.71 115.923 125.683 113.702C124.411 112.463 123.025 111.325 121.541 110.298C121.317 110.128 121.034 110.035 120.741 110.035C120.449 110.035 120.166 110.128 119.942 110.298C119.763 110.475 119.664 110.706 119.664 110.945C119.664 111.185 119.763 111.416 119.942 111.592C120.468 112.309 121.059 112.986 121.651 113.583C121.889 113.82 122.036 114.12 122.072 114.439C122.108 114.758 122.029 115.079 121.848 115.354C121.658 115.596 121.386 115.776 121.074 115.865C120.762 115.955 120.426 115.95 120.117 115.852C119.283 115.605 118.464 115.319 117.663 114.996C117.592 114.939 117.499 114.908 117.404 114.911C117.309 114.913 117.219 114.949 117.152 115.01C117.085 115.071 117.046 115.153 117.043 115.239C117.04 115.325 117.074 115.409 117.137 115.474L117.246 115.733C117.376 115.995 117.428 116.284 117.397 116.57C117.367 116.856 117.254 117.13 117.071 117.365C116.884 117.59 116.637 117.768 116.353 117.883C116.07 117.997 115.759 118.045 115.45 118.022C105.805 117.608 96.1439 117.642 86.5033 118.121C86.358 118.121 86.2186 118.069 86.1159 117.975C86.0131 117.882 85.9554 117.756 85.9554 117.624C85.9554 117.492 86.0131 117.365 86.1159 117.272C86.2186 117.178 86.358 117.126 86.5033 117.126C96.1805 116.646 105.878 116.613 115.559 117.026C115.682 117.045 115.809 117.033 115.925 116.991C116.041 116.949 116.142 116.878 116.217 116.788C116.282 116.685 116.316 116.568 116.316 116.449C116.316 116.33 116.282 116.214 116.217 116.111L116.107 115.892C115.954 115.639 115.895 115.347 115.94 115.061C115.984 114.775 116.13 114.51 116.355 114.306C116.58 114.102 116.872 113.969 117.187 113.928C117.501 113.888 117.822 113.941 118.101 114.08C118.853 114.402 119.629 114.675 120.424 114.897C120.493 114.945 120.578 114.971 120.665 114.971C120.752 114.971 120.837 114.945 120.906 114.897C120.961 114.803 120.98 114.695 120.96 114.591C120.94 114.486 120.882 114.391 120.796 114.319C120.161 113.643 119.569 112.926 119.021 112.209C118.706 111.836 118.546 111.374 118.57 110.904C118.594 110.433 118.8 109.986 119.153 109.642C119.558 109.3 120.09 109.11 120.643 109.11C121.195 109.11 121.728 109.3 122.133 109.642C123.712 110.689 125.179 111.868 126.515 113.165C128.389 115.158 130.744 116.731 133.396 117.763C133.465 117.783 133.53 117.816 133.585 117.859C133.641 117.902 133.686 117.955 133.719 118.014C133.752 118.074 133.771 118.138 133.776 118.205C133.78 118.271 133.77 118.337 133.746 118.4C133.726 118.482 133.683 118.557 133.622 118.62C133.56 118.683 133.483 118.73 133.396 118.758Z" fill="white"/>
</svg>
